<mxfile host="app.diagrams.net" modified="2023-11-28T18:46:48.540Z" agent="Mozilla/5.0 (Macintosh; Intel Mac OS X 10_15_7) AppleWebKit/537.36 (KHTML, like Gecko) Chrome/119.0.0.0 Safari/537.36" version="22.1.4" etag="vXrZ-YT64UPJjUHg6UYE" type="github">
  <diagram name="第 1 页" id="qG1XOZHub_Ox06TlB61M">
    <mxGraphModel>
      <root>
        <mxCell id="0" />
        <mxCell id="1" parent="0" />
      </root>
    </mxGraphModel>
  </diagram>
</mxfile>
